<svg width="16" height="16" viewBox="0 0 16 16" fill="none" xmlns="http://www.w3.org/2000/svg">
<g id="FACEBOOK">
<path id="Vector" d="M11.3333 2.33337C11.3333 2.24496 11.2982 2.16018 11.2357 2.09767C11.1732 2.03515 11.0884 2.00004 11 2.00004H9.33333C8.49408 1.95823 7.6724 2.2503 7.04781 2.81242C6.42323 3.37455 6.04652 4.16103 6 5.00004V6.80004H4.33333C4.24493 6.80004 4.16014 6.83516 4.09763 6.89767C4.03512 6.96018 4 7.04496 4 7.13337V8.8667C4 8.95511 4.03512 9.03989 4.09763 9.1024C4.16014 9.16492 4.24493 9.20004 4.33333 9.20004H6V13.6667C6 13.7551 6.03512 13.8399 6.09763 13.9024C6.16014 13.9649 6.24493 14 6.33333 14H8.33333C8.42174 14 8.50652 13.9649 8.56904 13.9024C8.63155 13.8399 8.66667 13.7551 8.66667 13.6667V9.20004H10.4133C10.4875 9.2011 10.5598 9.17742 10.619 9.13275C10.6782 9.08808 10.7207 9.02496 10.74 8.95337L11.22 7.22004C11.2333 7.17078 11.235 7.11914 11.2252 7.0691C11.2154 7.01905 11.1942 6.97192 11.1633 6.93135C11.1324 6.89078 11.0926 6.85784 11.0469 6.83507C11.0013 6.81231 10.951 6.80032 10.9 6.80004H8.66667V5.00004C8.68325 4.83502 8.76074 4.68211 8.88402 4.57116C9.00729 4.46022 9.16749 4.3992 9.33333 4.40004H11C11.0884 4.40004 11.1732 4.36492 11.2357 4.3024C11.2982 4.23989 11.3333 4.15511 11.3333 4.0667V2.33337Z" fill="#413DEE"/>
</g>
</svg>
